<?xml version="1.0" standalone="no"?>
<!DOCTYPE svg PUBLIC "-//W3C//DTD SVG 20010904//EN"
 "http://www.w3.org/TR/2001/REC-SVG-20010904/DTD/svg10.dtd">
<svg version="1.0" xmlns="http://www.w3.org/2000/svg"
 width="700.000000pt" height="700.000000pt" viewBox="0 0 700.000000 700.000000"
 preserveAspectRatio="xMidYMid meet">
<metadata>
Created by potrace 1.14, written by Peter Selinger 2001-2017
</metadata>
<g transform="translate(0.000000,700.000000) scale(0.100000,-0.100000)"
fill="#000000" stroke="none">
<path d="M3247 6212 l-99 -3 7 -172 c4 -95 7 -193 6 -220 l0 -47 166 2 166 3
1 33 c1 37 9 35 -136 33 -60 -1 -108 1 -109 6 -7 80 -6 110 4 110 7 1 52 2
102 3 49 1 94 4 100 7 10 3 12 21 6 66 -1 5 -50 6 -111 4 l-110 -3 0 48 c0 47
1 48 33 49 17 1 61 3 97 4 36 2 75 4 88 4 21 1 23 5 20 39 l-3 37 -65 0 c-36
0 -109 -1 -163 -3z"/>
<path d="M3616 6191 c-3 -14 -8 -46 -11 -71 -3 -25 -7 -56 -10 -70 -2 -14 -7
-45 -10 -70 -3 -25 -7 -56 -10 -70 -3 -14 -8 -51 -11 -82 l-6 -58 31 -1 c17
-1 39 -2 48 -3 18 -1 20 7 37 127 6 38 11 47 27 47 40 0 61 -23 106 -115 l45
-93 45 -4 c43 -3 44 -2 38 22 -8 33 -86 170 -97 170 -4 0 -8 5 -8 10 0 6 11
10 24 10 13 0 36 10 51 22 42 33 57 81 46 149 -1 4 -12 18 -26 32 -26 26 -80
43 -169 53 -26 3 -68 9 -92 13 -41 8 -43 7 -48 -18z m144 -74 c86 -11 117 -37
99 -83 -12 -33 -25 -37 -104 -29 l-73 6 5 37 c4 34 10 74 12 79 1 1 7 1 14 -2
6 -2 28 -6 47 -8z"/>
<path d="M2796 6149 c-52 -12 -91 -42 -121 -93 -48 -83 -29 -221 42 -293 38
-39 81 -55 148 -54 98 1 229 76 219 125 -2 11 -7 35 -10 51 -9 52 -25 105 -31
105 -3 0 -45 -9 -93 -21 l-87 -20 6 -32 c7 -31 8 -32 58 -29 48 3 51 2 56 -24
6 -33 -19 -58 -73 -74 -50 -14 -71 -12 -106 9 -56 34 -91 155 -62 210 35 65
137 89 178 41 18 -21 21 -22 57 -7 20 8 39 19 40 24 2 6 -8 24 -22 41 -40 47
-110 62 -199 41z"/>
<path d="M2298 5993 l-38 -16 6 -131 c3 -72 7 -153 9 -181 2 -27 4 -74 4 -102
1 -59 10 -64 60 -39 26 14 27 18 23 66 l-4 50 59 26 c32 13 68 30 80 36 19 9
26 7 50 -22 15 -18 31 -38 35 -43 9 -15 90 23 86 39 -3 15 -317 335 -327 333
-3 -1 -23 -8 -43 -16z m162 -223 c0 -6 -102 -52 -106 -48 -1 2 -4 40 -6 85
l-3 83 57 -57 c32 -32 58 -60 58 -63z"/>
<path d="M4343 5990 c-79 -37 -131 -113 -140 -206 -16 -149 121 -263 282 -235
43 7 42 6 91 117 l24 55 -27 10 c-16 5 -55 22 -88 38 l-60 28 -12 -30 c-18
-42 -18 -42 32 -63 48 -19 51 -24 35 -55 -23 -41 -150 -11 -178 43 -20 38 -22
65 -6 112 29 84 94 130 164 115 40 -9 80 -50 80 -83 0 -18 9 -25 40 -35 49
-15 60 -9 60 32 0 113 -183 209 -297 157z"/>
<path d="M4681 5648 l-124 -180 31 -29 c17 -16 35 -29 39 -29 4 1 28 32 53 70
47 74 65 83 96 49 16 -17 19 -37 19 -124 l0 -104 42 -31 c23 -17 44 -27 47
-22 10 17 9 187 -2 214 -11 26 -10 27 14 18 77 -30 164 29 164 110 0 59 -80
138 -220 218 l-35 20 -124 -180z m280 -24 c8 -16 8 -27 0 -43 -20 -37 -52 -36
-119 5 -34 20 -62 39 -62 42 0 3 12 24 27 47 l26 42 58 -36 c32 -20 63 -46 70
-57z"/>
<path d="M1920 5792 c-127 -51 -177 -181 -92 -240 43 -30 69 -32 151 -10 42
11 85 21 96 22 61 7 76 -55 24 -98 -41 -35 -71 -41 -108 -22 -34 18 -53 13
-84 -21 -16 -19 -16 -20 0 -35 48 -42 117 -49 178 -20 127 61 172 180 97 255
-45 45 -82 48 -190 15 -100 -29 -122 -28 -122 6 0 48 77 93 121 70 23 -11 29
-10 57 9 40 28 40 42 0 67 -37 22 -77 23 -128 2z"/>
<path d="M3238 5575 c-2 -1 -34 -6 -73 -9 -232 -21 -508 -101 -735 -215 -117
-58 -122 -61 -240 -140 -599 -401 -962 -1075 -964 -1791 -1 -585 226 -1135
639 -1545 310 -309 681 -507 1112 -594 141 -29 222 -36 413 -36 185 0 275 7
400 30 282 53 542 157 785 316 61 39 112 74 115 78 3 3 32 26 65 50 145 107
366 358 485 551 50 79 142 261 168 330 58 151 113 348 128 455 3 28 8 59 10
70 8 39 18 201 17 290 0 428 -122 832 -361 1195 -212 323 -546 611 -887 765
-44 20 -89 40 -100 45 -87 40 -334 110 -440 125 -22 3 -67 11 -100 17 -54 9
-428 21 -437 13z m442 -235 c539 -82 960 -342 1318 -815 31 -41 104 -167 148
-255 140 -284 205 -577 198 -900 -10 -528 -219 -1003 -600 -1370 -649 -624
-1652 -721 -2404 -233 -372 242 -660 610 -795 1018 -22 65 -53 177 -61 220 -4
22 -8 45 -9 50 -27 119 -39 393 -23 545 90 891 773 1608 1658 1740 154 23 417
23 570 0z"/>
<path d="M3210 5200 c-47 -11 -89 -21 -95 -23 -5 -2 -29 -9 -51 -15 -62 -18
-248 -115 -313 -164 -217 -163 -323 -342 -387 -653 -16 -77 -20 -258 -11 -412
l8 -111 -58 5 c-53 5 -60 3 -82 -21 -27 -28 -31 -75 -18 -176 10 -77 15 -122
22 -218 3 -45 12 -100 20 -121 52 -148 154 -239 225 -201 37 20 41 8 60 -165
31 -292 31 -755 -1 -816 -7 -14 -16 -15 -51 -7 -24 5 -53 10 -65 11 -12 2 -25
6 -29 10 -17 17 -41 3 -69 -40 -22 -33 -46 -54 -87 -75 -32 -17 -58 -33 -58
-37 0 -10 152 -121 230 -168 186 -113 415 -195 665 -238 164 -28 499 -28 630
1 11 2 31 6 45 8 78 13 247 64 365 112 81 32 332 160 356 180 8 8 18 14 22 14
3 0 34 17 67 39 l61 38 -63 55 c-65 56 -141 111 -168 120 -8 3 -30 -1 -49 -8
-39 -16 -67 -18 -76 -4 -19 31 -28 575 -12 685 12 76 17 108 22 135 2 14 7 45
10 69 14 96 25 113 88 136 105 37 183 136 206 261 13 69 5 328 -14 423 -15 78
-35 89 -101 56 -27 -14 -50 -25 -52 -25 -2 0 0 28 3 63 27 244 -13 514 -104
707 -123 259 -378 469 -676 555 -125 37 -295 43 -415 15z"/>
<path d="M5148 5454 c-86 -26 -176 -136 -183 -224 -7 -91 100 -215 192 -222
67 -5 118 12 170 57 116 102 129 233 33 333 -60 62 -130 81 -212 56z m143 -91
c38 -23 63 -75 55 -118 -14 -72 -101 -149 -167 -147 -112 5 -154 134 -71 218
64 64 126 80 183 47z"/>
<path d="M1392 5352 c-50 -53 -100 -109 -111 -123 l-20 -26 24 -19 c13 -11 67
-60 121 -109 100 -92 111 -102 157 -144 l27 -24 47 53 c27 29 78 85 115 124
l67 71 -27 28 -27 28 -35 -39 c-19 -21 -54 -59 -77 -84 -23 -25 -46 -49 -51
-52 -10 -6 -92 60 -92 73 0 3 31 42 69 86 l70 80 -21 23 c-24 25 -43 28 -55 8
-4 -7 -34 -42 -65 -76 -62 -67 -60 -67 -110 -18 -17 17 -15 20 40 80 31 35 59
65 62 68 3 3 13 15 23 26 18 21 17 22 -11 43 l-30 21 -90 -98z"/>
<path d="M5449 5034 c-79 -53 -153 -108 -164 -122 -29 -40 -27 -97 6 -163 24
-49 76 -107 97 -110 4 0 19 -3 34 -5 37 -6 78 12 210 97 151 96 145 89 116
133 l-24 35 -65 -43 c-126 -84 -200 -126 -224 -126 -24 0 -71 49 -75 80 -7 50
0 58 140 150 l139 92 -14 27 c-8 14 -18 32 -23 39 -6 9 -47 -13 -153 -84z"/>
<path d="M1152 5063 c-10 -16 -22 -33 -25 -40 -5 -7 20 -28 63 -54 38 -24 70
-48 70 -53 0 -6 -11 -26 -23 -45 -13 -20 -31 -48 -41 -63 -16 -27 -40 -37 -48
-20 -4 8 -106 72 -116 72 -4 0 -17 -16 -29 -35 l-23 -34 28 -19 c15 -11 98
-65 184 -120 l157 -101 19 27 c10 15 22 32 25 39 4 7 -24 31 -73 62 l-80 52
27 47 c15 26 30 49 34 52 3 3 11 15 18 28 12 22 12 22 86 -28 41 -27 78 -50
82 -50 4 0 18 16 31 35 l22 35 -102 66 c-57 37 -128 82 -158 102 -30 19 -67
44 -82 54 -26 18 -27 18 -46 -9z"/>
<path d="M5805 4675 c-45 -21 -129 -58 -240 -105 -55 -23 -102 -44 -103 -45
-8 -8 20 -75 31 -75 7 0 43 14 80 30 l68 29 10 -27 c26 -71 65 -135 91 -148
86 -45 208 21 208 113 0 43 -82 243 -100 242 -8 0 -28 -7 -45 -14z m32 -107
c36 -46 35 -123 -3 -140 -40 -19 -67 -3 -96 55 l-26 54 46 21 c57 24 67 26 79
10z"/>
<path d="M917 4668 c-3 -7 -32 -79 -65 -159 l-60 -147 25 -11 c40 -18 48 -13
67 39 10 28 22 52 26 55 4 3 83 -26 175 -64 l167 -69 15 36 c8 20 17 40 19 43
2 3 -29 19 -69 34 -40 15 -90 36 -112 45 -22 10 -66 28 -97 41 -32 12 -58 26
-58 30 0 4 9 28 20 54 26 60 26 61 -11 74 -39 13 -36 14 -42 -1z"/>
<path d="M2038 1053 c-9 -10 -25 -45 -37 -78 -12 -33 -26 -69 -31 -80 -16 -36
-40 -97 -40 -105 0 -4 10 -7 22 -6 15 1 25 12 37 44 l15 42 58 0 c57 0 58 0
73 -37 15 -35 30 -52 48 -53 14 0 7 30 -24 97 -17 38 -40 90 -51 118 -31 78
-43 88 -70 58z m36 -57 c7 -18 17 -47 21 -64 l6 -31 -45 2 c-25 0 -46 3 -46 4
0 2 9 21 20 43 11 22 20 48 20 60 0 29 8 25 24 -14z"/>
<path d="M2457 1050 c3 -11 12 -20 19 -20 8 0 14 9 14 20 0 13 -7 20 -19 20
-14 0 -18 -5 -14 -20z"/>
<path d="M2595 1060 c-20 -8 -52 -40 -47 -47 7 -10 1 -33 -8 -28 -5 3 -10 -1
-10 -10 0 -8 6 -18 13 -21 9 -3 12 -28 12 -82 -1 -70 6 -91 28 -92 4 0 7 41 7
90 0 83 1 90 20 90 11 0 20 7 20 15 0 9 -7 15 -17 13 -10 -2 -19 5 -21 16 -4
20 16 38 35 31 18 -6 28 16 12 26 -16 10 -18 10 -44 -1z"/>
<path d="M3160 1061 c0 -16 23 -25 60 -26 l35 0 0 -126 c0 -113 1 -125 17
-126 16 -2 18 10 18 126 l0 129 38 -3 c45 -3 62 3 62 21 0 11 -23 14 -115 14
-65 0 -115 -4 -115 -9z"/>
<path d="M3767 1063 c-7 -12 -95 -236 -102 -261 -5 -19 -3 -22 16 -19 17 3 27
15 37 45 l14 42 58 0 59 0 20 -44 c14 -33 25 -44 39 -43 18 1 17 6 -15 82 -19
44 -44 103 -54 130 -24 59 -58 91 -72 68z m41 -92 c12 -32 22 -61 22 -63 0 -5
-81 -4 -87 1 -1 0 6 25 17 55 10 30 16 57 13 60 -4 3 -2 6 3 6 5 0 19 -27 32
-59z"/>
<path d="M4084 1062 c-6 -4 -11 -20 -11 -37 -1 -55 -2 -58 -15 -48 -25 20 -57
20 -87 2 -33 -20 -38 -40 -32 -120 1 -20 29 -52 59 -68 18 -10 28 -9 52 2 24
13 30 13 34 1 3 -8 10 -14 16 -14 12 0 14 276 2 284 -4 2 -13 2 -18 -2z m-20
-114 c34 -48 8 -138 -39 -138 -28 0 -55 38 -55 78 0 47 24 82 55 82 13 0 31
-10 39 -22z"/>
<path d="M4163 1050 c1 -12 8 -20 19 -20 11 0 18 7 18 20 0 13 -7 20 -19 20
-14 0 -19 -6 -18 -20z"/>
<path d="M2373 1053 c-7 -3 -13 -18 -13 -34 0 -17 -5 -28 -12 -26 -6 1 -14 -6
-16 -16 -2 -11 2 -16 10 -15 10 2 14 -18 18 -79 3 -45 8 -85 12 -89 5 -4 21
-8 37 -9 32 -2 33 19 1 28 -16 4 -18 15 -17 76 1 65 5 76 30 72 4 0 7 6 7 14
0 13 -11 19 -32 16 -3 0 -5 10 -4 24 4 29 -5 43 -21 38z"/>
<path d="M4707 990 c-15 -12 -27 -28 -27 -36 0 -19 29 -18 36 1 7 18 65 20 82
3 22 -22 13 -37 -25 -43 -84 -14 -119 -43 -107 -89 9 -39 85 -55 120 -25 8 7
14 7 19 -1 3 -5 14 -10 24 -10 16 0 17 10 16 90 -2 104 -11 121 -73 127 -28 3
-46 -2 -65 -17z m93 -140 c-17 -31 -38 -42 -70 -35 -49 11 -36 50 20 60 19 3
36 8 39 11 10 10 19 -21 11 -36z"/>
<path d="M2261 976 c-18 -17 -21 -18 -15 -3 4 12 1 17 -10 17 -14 0 -16 -15
-16 -104 0 -59 4 -108 10 -111 6 -4 10 21 10 67 0 81 11 105 50 110 30 4 39
33 12 41 -12 3 -28 -4 -41 -17z"/>
<path d="M4403 993 c-9 -3 -13 -27 -13 -69 0 -73 -19 -114 -54 -114 -37 0 -46
19 -46 102 0 60 -3 78 -14 78 -19 0 -23 -15 -21 -95 1 -83 10 -102 53 -114 25
-8 36 -6 57 11 14 10 25 15 25 9 0 -12 29 -15 31 -3 4 29 4 173 -1 185 -3 8
-11 12 -17 10z"/>
<path d="M2459 968 c-1 -26 -1 -169 0 -180 1 -5 8 -8 15 -8 17 0 23 57 18 153
-3 41 -8 57 -18 57 -8 0 -14 -10 -15 -22z"/>
<path d="M2703 974 c-46 -23 -62 -80 -38 -137 18 -44 40 -57 94 -57 32 0 44 5
57 26 12 18 14 28 6 36 -13 13 -32 2 -32 -18 0 -28 -48 -21 -78 13 -30 33 -18
41 57 38 71 -3 84 3 76 38 -15 59 -85 90 -142 61z m62 -16 c14 -6 25 -15 25
-19 0 -4 2 -14 5 -21 5 -11 -6 -14 -50 -14 -30 1 -56 3 -56 6 -5 15 14 49 29
53 9 3 18 5 19 6 1 0 14 -4 28 -11z"/>
<path d="M2870 985 c0 -4 14 -26 30 -50 17 -24 30 -47 30 -50 0 -4 -16 -26
-35 -49 -19 -24 -35 -48 -35 -54 0 -22 37 1 61 39 l24 40 21 -25 c12 -14 24
-30 25 -35 4 -11 49 -25 49 -15 0 2 -16 26 -36 54 l-36 50 31 42 c17 23 31 46
31 50 0 20 -32 5 -56 -28 l-28 -36 -20 34 c-18 28 -56 51 -56 33z"/>
<path d="M3409 968 c-35 -22 -49 -69 -35 -122 13 -51 53 -74 116 -67 8 1 25
14 38 28 18 20 21 28 11 34 -14 9 -42 -8 -34 -21 8 -13 -32 -18 -56 -6 -26 13
-46 42 -36 52 4 4 38 8 75 8 74 1 87 14 61 63 -27 50 -87 63 -140 31z m76 -14
c14 -9 25 -24 25 -34 0 -16 -8 -18 -51 -17 -27 0 -52 4 -55 9 -7 11 18 47 36
52 8 2 16 4 18 5 1 0 14 -6 27 -15z"/>
<path d="M4168 978 c-2 -7 -4 -53 -4 -103 1 -73 4 -90 16 -90 12 0 16 19 18
103 2 83 0 102 -12 102 -7 0 -16 -6 -18 -12z"/>
<path d="M4477 923 c14 -38 30 -84 37 -103 22 -61 45 -47 83 50 47 120 47 119
26 116 -12 -2 -28 -29 -49 -82 -36 -88 -32 -90 -70 29 -12 40 -23 57 -35 57
-16 0 -15 -7 8 -67z"/>
</g>
</svg>
