<?xml version="1.0" encoding="utf-8"?>
<!-- Generator: Adobe Illustrator 26.0.1, SVG Export Plug-In . SVG Version: 6.00 Build 0)  -->
<svg version="1.1" id="Layer_1" xmlns="http://www.w3.org/2000/svg" xmlns:xlink="http://www.w3.org/1999/xlink" x="0px" y="0px"
	 viewBox="0 0 100 100" style="enable-background:new 0 0 100 100;" xml:space="preserve">
<style type="text/css">
	.st0{fill:#111111;}
	.st1{fill:#FFFFFF;}
</style>
<circle class="st0" cx="50" cy="50" r="45"/>
<g>
	<path class="st1" d="M30.4,61.5v-5.3H19.7v-4.5l9.9-13.9h5.6V52H38l-0.5,4.2h-2.4v5.3H30.4z M30.4,47.7c0-2.6,0-4,0.1-5.5
		c-0.9,2-4,6.5-6.3,9.7h6.2V47.7z"/>
	<path class="st1" d="M59.2,49.5c0,6.5-2.1,12.4-9.1,12.4c-6.9,0-9.1-5.7-9.1-12.3c0-6.5,2.4-12.3,9.2-12.3
		C56.8,37.3,59.2,42.7,59.2,49.5z M46.3,49.6c0,4.4,0.5,8.2,3.8,8.2c3.3,0,3.7-3.6,3.7-8.3c0-4.6-0.6-8.1-3.7-8.1
		C47.2,41.4,46.3,44.4,46.3,49.6z"/>
	<path class="st1" d="M73.4,61.5v-5.3H62.7v-4.5l9.9-13.9h5.6V52h2.9l-0.5,4.2h-2.4v5.3H73.4z M73.4,47.7c0-2.6,0-4,0.1-5.5
		c-0.9,2-4,6.5-6.3,9.7h6.2V47.7z"/>
</g>
</svg>
