<?xml version="1.0" encoding="utf-8"?>
<!-- Generator: Adobe Illustrator 25.4.1, SVG Export Plug-In . SVG Version: 6.00 Build 0)  -->
<svg version="1.1" id="Layer_1" xmlns="http://www.w3.org/2000/svg" xmlns:xlink="http://www.w3.org/1999/xlink" x="0px" y="0px"
	 viewBox="0 0 100 100" style="enable-background:new 0 0 100 100;" xml:space="preserve">
<style type="text/css">
	.st0{fill:#FFFFFF;}
</style>
<g>
	<g>
		<path class="st0" d="M17.9,38.4l-4.9-2l-0.7,1.7l-1-0.4l1.9-4.6l1,0.4l-0.7,1.7l4.9,2L17.9,38.4z"/>
		<path class="st0" d="M19.3,35L14,31.6l0.7-1.1l2.1,1.3l1.3-2.1L16,28.4l0.7-1.1l5.3,3.4l-0.7,1.1L19,30.3l-1.3,2.1l2.3,1.5
			L19.3,35z"/>
		<path class="st0" d="M22.7,29.9L18,25.6l3.2-3.5l0.8,0.7l-2.3,2.5l1,0.9l2.1-2.3l0.8,0.7L21.5,27l1.3,1.2l2.4-2.6l0.8,0.7
			L22.7,29.9z"/>
		<path class="st0" d="M27,22.7l1-0.8c0.3,0.3,0.6,0.5,0.9,0.5c0.3,0,0.6-0.1,0.9-0.3c0.3-0.2,0.6-0.5,0.6-0.7
			c0.1-0.3,0.1-0.5-0.1-0.7c-0.1-0.1-0.2-0.2-0.3-0.2c-0.1,0-0.3,0-0.5,0c-0.2,0-0.5,0.2-1,0.3c-0.7,0.2-1.2,0.3-1.5,0.3
			c-0.5-0.1-0.9-0.3-1.2-0.7c-0.2-0.3-0.3-0.6-0.3-0.9c0-0.3,0.1-0.7,0.3-1c0.2-0.3,0.5-0.6,0.9-0.9c0.7-0.4,1.3-0.6,1.8-0.6
			c0.5,0.1,1,0.3,1.3,0.8l-1,0.8c-0.2-0.2-0.5-0.4-0.7-0.4c-0.2,0-0.5,0.1-0.8,0.3c-0.3,0.2-0.5,0.4-0.6,0.7c-0.1,0.2,0,0.3,0,0.4
			c0.1,0.1,0.2,0.2,0.4,0.2c0.2,0,0.6-0.1,1.2-0.3c0.6-0.2,1.1-0.3,1.4-0.4c0.3,0,0.6,0,0.9,0.1c0.3,0.1,0.5,0.4,0.8,0.7
			c0.2,0.3,0.3,0.6,0.3,1c0,0.4-0.1,0.7-0.3,1.1c-0.2,0.3-0.6,0.7-1,1c-0.7,0.4-1.3,0.6-1.8,0.6C28,23.6,27.4,23.3,27,22.7z"/>
		<path class="st0" d="M38.3,19l-1.3,0.6L36,18.4l-2.3,1l0.1,1.5l-1.2,0.5l-0.3-6.8l1.2-0.5L38.3,19z M35.2,17.6l-1.7-1.8l0.1,2.5
			L35.2,17.6z"/>
		<path class="st0" d="M41.1,16l-0.2-1l2.7-0.6l0.5,2.5c-0.2,0.3-0.5,0.6-1,0.9c-0.5,0.3-0.9,0.5-1.4,0.6c-0.6,0.1-1.2,0.1-1.8,0
			c-0.5-0.2-1-0.5-1.3-0.9c-0.4-0.5-0.6-1-0.7-1.6c-0.1-0.6-0.1-1.2,0-1.8c0.2-0.6,0.5-1,0.9-1.4c0.4-0.3,0.8-0.5,1.4-0.6
			c0.8-0.2,1.4-0.1,1.9,0.1c0.5,0.2,0.9,0.6,1.1,1.2l-1.2,0.5c-0.2-0.3-0.4-0.5-0.6-0.6c-0.3-0.1-0.6-0.1-1-0.1
			c-0.5,0.1-0.9,0.4-1.2,0.8c-0.2,0.4-0.3,1-0.1,1.6c0.2,0.7,0.4,1.2,0.8,1.5c0.4,0.3,0.9,0.4,1.4,0.3c0.3-0.1,0.5-0.2,0.8-0.3
			c0.2-0.2,0.4-0.3,0.6-0.5l-0.2-0.8L41.1,16z"/>
		<path class="st0" d="M45.2,17.6L45,11.3l4.7-0.1l0,1.1l-3.4,0.1l0,1.4l3.2-0.1l0,1.1l-3.2,0.1l0.1,1.7l3.5-0.1l0,1.1L45.2,17.6z"
			/>
		<path class="st0" d="M50.8,17.5l0.9-6.3l2.7,0.4c0.7,0.1,1.1,0.2,1.4,0.4c0.3,0.2,0.5,0.4,0.6,0.7c0.1,0.3,0.2,0.7,0.1,1
			c-0.1,0.5-0.3,0.8-0.6,1.1c-0.3,0.3-0.8,0.4-1.3,0.4c0.2,0.2,0.4,0.4,0.6,0.6c0.1,0.2,0.3,0.6,0.6,1.1l0.6,1.3L55,18.1l-0.7-1.5
			c-0.3-0.5-0.4-0.9-0.5-1c-0.1-0.1-0.2-0.2-0.3-0.3c-0.1-0.1-0.3-0.1-0.6-0.2l-0.3,0l-0.4,2.6L50.8,17.5z M52.6,14.1l0.9,0.1
			c0.6,0.1,1,0.1,1.1,0.1c0.2,0,0.3-0.1,0.4-0.2c0.1-0.1,0.2-0.3,0.2-0.5c0-0.2,0-0.4-0.1-0.5c-0.1-0.1-0.2-0.3-0.4-0.3
			c-0.1,0-0.4-0.1-0.9-0.2l-1-0.1L52.6,14.1z"/>
		<path class="st0" d="M62.8,18.2l0.4-1l2.5,1.1l-1,2.3c-0.3,0.1-0.8,0.2-1.3,0.2c-0.5,0-1.1-0.1-1.5-0.3c-0.6-0.3-1.1-0.6-1.4-1.1
			c-0.3-0.5-0.5-1-0.5-1.5c0-0.6,0.1-1.1,0.3-1.7c0.3-0.6,0.6-1.1,1.1-1.4c0.5-0.4,1-0.6,1.6-0.6c0.5,0,1,0.1,1.5,0.3
			c0.7,0.3,1.2,0.7,1.5,1.2c0.3,0.5,0.4,1,0.2,1.6l-1.3-0.3c0-0.3,0-0.6-0.2-0.9c-0.2-0.3-0.4-0.5-0.7-0.6c-0.5-0.2-1-0.2-1.4,0
			c-0.4,0.2-0.8,0.6-1.1,1.2c-0.3,0.7-0.4,1.3-0.2,1.7c0.2,0.5,0.5,0.8,1,1c0.2,0.1,0.5,0.2,0.8,0.2c0.3,0,0.6,0,0.8-0.1l0.3-0.7
			L62.8,18.2z"/>
		<path class="st0" d="M65.1,21.9l3.6-5.2l2.2,1.5c0.6,0.4,0.9,0.7,1.1,1c0.2,0.3,0.3,0.6,0.3,0.9c0,0.3-0.1,0.7-0.3,1
			c-0.3,0.4-0.6,0.6-1,0.7c-0.4,0.1-0.9,0-1.4-0.2c0.1,0.3,0.2,0.6,0.3,0.8c0,0.3,0,0.7,0,1.3l-0.1,1.5l-1.3-0.9l0-1.7
			c0-0.6,0-1,0-1.1c0-0.2-0.1-0.3-0.2-0.4c-0.1-0.1-0.2-0.3-0.5-0.4l-0.2-0.1l-1.5,2.2L65.1,21.9z M68.2,19.6l0.8,0.5
			c0.5,0.3,0.8,0.5,1,0.6c0.2,0,0.3,0,0.4,0c0.1-0.1,0.3-0.2,0.4-0.3C71,20.2,71,20,71,19.9c0-0.2-0.1-0.3-0.3-0.5
			c-0.1-0.1-0.3-0.3-0.8-0.5l-0.8-0.6L68.2,19.6z"/>
		<path class="st0" d="M72.1,23c0.5-0.5,0.9-0.8,1.4-0.9c0.3-0.1,0.7-0.2,1-0.2c0.4,0,0.7,0.1,1,0.2c0.4,0.2,0.8,0.4,1.1,0.8
			c0.7,0.7,1,1.4,0.9,2.2c0,0.8-0.4,1.6-1.1,2.3c-0.7,0.7-1.5,1.1-2.3,1.1c-0.8,0-1.5-0.3-2.2-1c-0.7-0.7-1-1.4-1-2.2
			C71,24.5,71.4,23.7,72.1,23z M73.1,23.9c-0.5,0.5-0.8,1-0.8,1.5c0,0.5,0.1,0.9,0.5,1.3c0.4,0.4,0.8,0.5,1.3,0.5
			c0.5,0,1-0.3,1.5-0.8c0.5-0.5,0.8-1,0.8-1.5c0-0.5-0.1-0.9-0.5-1.3c-0.4-0.4-0.8-0.5-1.3-0.5C74.1,23.2,73.6,23.4,73.1,23.9z"/>
		<path class="st0" d="M79.9,26.7l0.7,1.1l-2.9,1.9c-0.5,0.3-0.7,0.5-0.9,0.6c-0.2,0.2-0.3,0.4-0.3,0.7c0,0.3,0.1,0.5,0.3,0.8
			c0.2,0.3,0.4,0.5,0.6,0.6c0.2,0.1,0.4,0.1,0.6,0c0.2-0.1,0.5-0.3,0.9-0.5l2.9-1.9l0.7,1.1l-2.8,1.8c-0.6,0.4-1.1,0.7-1.4,0.8
			c-0.3,0.1-0.6,0.2-0.9,0.1c-0.3,0-0.6-0.1-0.8-0.3c-0.3-0.2-0.6-0.5-0.8-0.9c-0.3-0.5-0.5-0.9-0.6-1.3c-0.1-0.3,0-0.6,0-0.9
			c0.1-0.3,0.2-0.5,0.4-0.7c0.3-0.3,0.7-0.6,1.3-1L79.9,26.7z"/>
		<path class="st0" d="M77.9,35.4l5.8-2.5l0.8,1.9c0.3,0.7,0.5,1.2,0.5,1.4c0.1,0.4,0,0.7-0.2,1.1c-0.2,0.4-0.5,0.6-1,0.8
			c-0.4,0.2-0.7,0.2-1,0.2c-0.3,0-0.6-0.1-0.8-0.2c-0.2-0.1-0.4-0.3-0.5-0.5c-0.2-0.3-0.4-0.7-0.6-1.2l-0.3-0.8l-2.2,0.9L77.9,35.4z
			 M83.2,34.5l-1.6,0.7l0.3,0.6c0.2,0.5,0.4,0.8,0.5,0.9c0.1,0.1,0.3,0.2,0.4,0.2c0.2,0,0.3,0,0.5-0.1c0.2-0.1,0.4-0.2,0.4-0.4
			c0.1-0.2,0.1-0.4,0.1-0.6c0-0.2-0.1-0.4-0.3-0.9L83.2,34.5z"/>
	</g>
	<path class="st0" d="M48.5,20.3c-17.1,0-31,13.9-31,31s13.9,31,31,31c17.1,0,31-13.9,31-31S65.7,20.3,48.5,20.3z M48.5,79.2
		c-15.4,0-27.9-12.5-27.9-27.9c0-15.4,12.5-27.9,27.9-27.9s27.9,12.5,27.9,27.9C76.4,66.7,63.9,79.2,48.5,79.2z"/>
	<path class="st0" d="M65.8,72.1C60.4,75.5,55.1,78,48.5,78c-6.7,0-12.9-2.1-17.6-6.2c0,0,1.7-0.8,2-1.2c0.3-0.4,0.5-1,0.7-1.1
		c0.2-0.1,0.4,0.3,0.6,0.3c0.2,0,0.5-0.1,0.6,0c0.1,0.1,0.2,0.2,0.4,0.2c0.2,0,0.4-0.1,0.6,0.1c0.2,0.1,0.3-0.1,0.4-0.3
		c0.1-0.2,0.1-1.2,0.2-2c0.2-0.7,0.1-5.2,0-6.1c0-1-0.4-5.8-0.7-6c-0.3-0.2-0.3,0.6-1.4,0.2c-1.1-0.4-1.8-1.7-2.2-2.8
		c-0.4-1.1-0.3-1.8-0.4-3.2c-0.2-1.4-0.2-1.6-0.3-2.5c-0.2-0.9,0-1.9,0.8-2.1c0.8-0.2,1.3,0.2,1.5,0.2c0.3-0.1-1.3-6.3,1.5-12.1
		c2.8-5.8,9.7-8,13.2-8s9.1,2,12.3,7.1c3.3,5.2,2.2,11.8,2.1,12.3c-0.1,0.5,0.7-0.5,1.5-0.6c0.7-0.1,1,1.2,1.1,5.6
		c0.1,4.3-2.9,5.4-3.5,5.4c-0.6,0-0.7,0.9-1.2,4.2c-0.5,3.3-0.2,9.8,0.1,10.3c0.3,0.5,1.1-0.2,1.5-0.2C62.7,69.3,66,71.9,65.8,72.1z
		"/>
	<g>
		<path class="st0" d="M27.5,88.8l1.6-4h0.6l1.7,4h-0.6l-0.5-1.2h-1.7l-0.4,1.2H27.5z M28.7,87.1h1.4L29.7,86
			c-0.1-0.3-0.2-0.6-0.3-0.8c-0.1,0.3-0.1,0.5-0.2,0.8L28.7,87.1z"/>
		<path class="st0" d="M31.7,88.8v-2.9h0.4v0.4c0.1-0.2,0.2-0.3,0.3-0.4c0.1-0.1,0.2-0.1,0.3-0.1c0.2,0,0.3,0.1,0.5,0.2l-0.2,0.5
			c-0.1-0.1-0.2-0.1-0.4-0.1c-0.1,0-0.2,0-0.3,0.1c-0.1,0.1-0.1,0.2-0.2,0.3c-0.1,0.2-0.1,0.4-0.1,0.6v1.5H31.7z"/>
		<path class="st0" d="M34.7,88.4l0.1,0.4c-0.1,0-0.3,0-0.4,0c-0.2,0-0.3,0-0.4-0.1c-0.1-0.1-0.2-0.1-0.2-0.2c0-0.1-0.1-0.3-0.1-0.6
			v-1.7h-0.4v-0.4h0.4v-0.7l0.5-0.3v1h0.5v0.4h-0.5V88c0,0.1,0,0.2,0,0.3c0,0,0,0.1,0.1,0.1c0,0,0.1,0,0.2,0
			C34.5,88.4,34.6,88.4,34.7,88.4z"/>
		<path class="st0" d="M35.1,85.3v-0.6h0.5v0.6H35.1z M35.1,88.8v-2.9h0.5v2.9H35.1z"/>
		<path class="st0" d="M36.5,88.8v-2.5h-0.4v-0.4h0.4v-0.3c0-0.2,0-0.3,0.1-0.4c0-0.1,0.1-0.2,0.3-0.3c0.1-0.1,0.3-0.1,0.5-0.1
			c0.1,0,0.3,0,0.5,0l-0.1,0.4c-0.1,0-0.2,0-0.3,0c-0.2,0-0.3,0-0.3,0.1C37,85.3,37,85.4,37,85.6v0.3h0.6v0.4H37v2.5H36.5z"/>
		<path class="st0" d="M40,87.9l0.5,0.1c-0.1,0.3-0.2,0.5-0.4,0.7c-0.2,0.2-0.5,0.2-0.8,0.2c-0.4,0-0.8-0.1-1-0.4
			c-0.2-0.3-0.4-0.6-0.4-1.1c0-0.5,0.1-0.9,0.4-1.1c0.3-0.3,0.6-0.4,1-0.4c0.4,0,0.7,0.1,1,0.4c0.2,0.3,0.4,0.6,0.4,1.1
			c0,0,0,0.1,0,0.1h-2.2c0,0.3,0.1,0.6,0.3,0.7c0.2,0.2,0.4,0.3,0.6,0.3c0.2,0,0.3,0,0.5-0.1C39.8,88.2,39.9,88.1,40,87.9z
			 M38.3,87.1H40c0-0.2-0.1-0.4-0.2-0.6c-0.2-0.2-0.4-0.3-0.6-0.3c-0.2,0-0.4,0.1-0.6,0.2C38.4,86.6,38.4,86.8,38.3,87.1z"/>
		<path class="st0" d="M40.8,88.8l1.1-1.5l-1-1.4h0.6l0.4,0.7c0.1,0.1,0.2,0.2,0.2,0.3c0.1-0.1,0.2-0.2,0.2-0.3l0.5-0.7h0.6l-1,1.4
			l1.1,1.5h-0.6l-0.6-0.9l-0.2-0.2l-0.8,1.2H40.8z"/>
		<path class="st0" d="M46.5,88.8v-3.6h-1.3v-0.5h3.2v0.5H47v3.6H46.5z"/>
		<path class="st0" d="M50.2,87.9l0.5,0.1c-0.1,0.3-0.2,0.5-0.4,0.7c-0.2,0.2-0.5,0.2-0.8,0.2c-0.4,0-0.8-0.1-1-0.4
			c-0.3-0.3-0.4-0.6-0.4-1.1c0-0.5,0.1-0.9,0.4-1.1c0.3-0.3,0.6-0.4,1-0.4c0.4,0,0.7,0.1,1,0.4c0.2,0.3,0.4,0.6,0.4,1.1
			c0,0,0,0.1,0,0.1h-2.2c0,0.3,0.1,0.6,0.3,0.7c0.2,0.2,0.4,0.3,0.6,0.3c0.2,0,0.3,0,0.5-0.1C50,88.2,50.1,88.1,50.2,87.9z
			 M48.6,87.1h1.6c0-0.2-0.1-0.4-0.2-0.6c-0.2-0.2-0.4-0.3-0.6-0.3c-0.2,0-0.4,0.1-0.6,0.2C48.7,86.6,48.6,86.8,48.6,87.1z"/>
		<path class="st0" d="M52.2,88.8l1.6-4h0.6l1.7,4h-0.6l-0.5-1.2h-1.7l-0.4,1.2H52.2z M53.4,87.1h1.4L54.3,86
			c-0.1-0.3-0.2-0.6-0.3-0.8c-0.1,0.3-0.1,0.5-0.2,0.8L53.4,87.1z"/>
		<path class="st0" d="M58.3,88.8v-0.4c-0.2,0.3-0.5,0.4-0.8,0.4c-0.2,0-0.4-0.1-0.6-0.2c-0.2-0.1-0.3-0.3-0.5-0.5
			c-0.1-0.2-0.2-0.5-0.2-0.8c0-0.3,0-0.6,0.1-0.8c0.1-0.2,0.2-0.4,0.4-0.5c0.2-0.1,0.4-0.2,0.7-0.2c0.2,0,0.3,0,0.5,0.1
			c0.1,0.1,0.2,0.2,0.3,0.3v-1.4h0.5v4H58.3z M56.7,87.3c0,0.4,0.1,0.7,0.2,0.8c0.2,0.2,0.3,0.3,0.6,0.3c0.2,0,0.4-0.1,0.6-0.3
			c0.2-0.2,0.2-0.4,0.2-0.8c0-0.4-0.1-0.7-0.2-0.9c-0.2-0.2-0.3-0.3-0.6-0.3c-0.2,0-0.4,0.1-0.6,0.3C56.8,86.7,56.7,87,56.7,87.3z"
			/>
		<path class="st0" d="M59.5,85.3v-0.6H60v0.6H59.5z M59.5,88.8v-2.9H60v2.9H59.5z"/>
		<path class="st0" d="M62.7,88.8v-0.4c-0.2,0.3-0.5,0.5-0.9,0.5c-0.2,0-0.3,0-0.5-0.1c-0.2-0.1-0.3-0.2-0.3-0.2
			c-0.1-0.1-0.1-0.2-0.2-0.4c0-0.1,0-0.3,0-0.5v-1.8h0.5v1.6c0,0.3,0,0.4,0,0.5c0,0.1,0.1,0.2,0.2,0.3c0.1,0.1,0.2,0.1,0.4,0.1
			c0.2,0,0.3,0,0.4-0.1c0.1-0.1,0.2-0.2,0.3-0.3c0.1-0.1,0.1-0.3,0.1-0.6v-1.6h0.5v2.9H62.7z"/>
		<path class="st0" d="M64.7,88.8l-1.1-2.9h0.5l0.6,1.8c0.1,0.2,0.1,0.4,0.2,0.6c0-0.2,0.1-0.3,0.2-0.6l0.7-1.8h0.5l-1.1,2.9H64.7z"
			/>
		<path class="st0" d="M68.6,88.4c-0.2,0.2-0.4,0.3-0.5,0.3c-0.2,0.1-0.4,0.1-0.5,0.1c-0.3,0-0.6-0.1-0.7-0.2
			c-0.2-0.2-0.3-0.4-0.3-0.6c0-0.1,0-0.3,0.1-0.4c0.1-0.1,0.2-0.2,0.3-0.3c0.1-0.1,0.2-0.1,0.4-0.2c0.1,0,0.2-0.1,0.4-0.1
			c0.4,0,0.7-0.1,0.9-0.2c0-0.1,0-0.1,0-0.1c0-0.2,0-0.3-0.1-0.4c-0.1-0.1-0.3-0.2-0.6-0.2c-0.2,0-0.4,0-0.5,0.1
			c-0.1,0.1-0.2,0.2-0.2,0.4l-0.5-0.1c0-0.2,0.1-0.4,0.2-0.5c0.1-0.1,0.2-0.2,0.4-0.3c0.2-0.1,0.4-0.1,0.7-0.1c0.2,0,0.5,0,0.6,0.1
			c0.2,0.1,0.3,0.1,0.3,0.2c0.1,0.1,0.1,0.2,0.2,0.3c0,0.1,0,0.2,0,0.5v0.7c0,0.5,0,0.8,0,0.9c0,0.1,0.1,0.2,0.1,0.4h-0.5
			C68.7,88.7,68.6,88.6,68.6,88.4z M68.6,87.3c-0.2,0.1-0.5,0.1-0.8,0.2c-0.2,0-0.3,0.1-0.4,0.1c-0.1,0-0.1,0.1-0.2,0.2
			c0,0.1-0.1,0.2-0.1,0.2c0,0.1,0.1,0.2,0.2,0.3c0.1,0.1,0.2,0.1,0.4,0.1c0.2,0,0.4,0,0.5-0.1c0.1-0.1,0.3-0.2,0.3-0.3
			c0.1-0.1,0.1-0.3,0.1-0.5V87.3z"/>
	</g>
</g>
</svg>
